# xmcd
# 
# Track frame offsets:
#     150
#     17307
#     35625
#     57185
#     69503
#     84192
#     101658
#     116911
#     133212
#     154381
#     173255
#     192161
# 
# Disc length: 2826
# 
# Revision: 0
# Processed by: cddbd v1.5.2PL0 Copyright (c) Steve Scherf et al.
# Submitted via: fre:ac v1.0.31
# 
DISCID=970b080c
DTITLE=Chris Smither - Still On The Levee CD 2
DYEAR=2014
DGENRE=Folk
TTITLE0=Hold On
TTITLE1=Shillin' For The Blues
TTITLE2=No Love Today
TTITLE3=What They Say
TTITLE4=Slow Surprise
TTITLE5=Shake These Blues
TTITLE6=Call Time
TTITLE7=Up On The Lowdown
TTITLE8=Seems So Real
TTITLE9=Small Revelations
TTITLE10=Winsome Smile
TTITLE11=Leave The Light On (Slow)
EXTD=
EXTT0=
EXTT1=
EXTT2=
EXTT3=
EXTT4=
EXTT5=
EXTT6=
EXTT7=
EXTT8=
EXTT9=
EXTT10=
EXTT11=
PLAYORDER=
